<?xml version="1.0" encoding="utf-8"?>
<svg version="1.1" id="ydA_logo_2022" xmlns="http://www.w3.org/2000/svg" xmlns:xlink="http://www.w3.org/1999/xlink" x="0px"
	 y="0px" viewBox="0 0 320 320" style="enable-background:new 0 0 320 320;" xml:space="preserve">
<style type="text/css">
	.st0{fill:#222221;}
	.bg0 {stroke: rgb(0, 0, 0); fill: rgb(255, 255, 255);}
</style>
<rect width="320" height="320" style="" class="bg0"></rect>
<g id="logo" style="" transform="matrix(1, 0, 0, 1, 32.688599, 59.400005)">
	<path id="A_00000000934225514709677930000000834725747995588267_" class="st0" d="M254,191.7c1.3,1,0.3,8.1-0.6,9.4
		c-8.4-0.3-25-1-39.6-1c-15.9,0-35.8,0.7-42.6,1c-1-1.3-1.6-8.1-0.3-9.4c7.1-1,13-1.9,17.9-3.6c4.2-1.9,4.5-5.2,3.6-8.1
		c-3.9-14-13.6-41.3-19.5-55.9c-0.3-1-2.3-2.3-2.9-2.3c-4.6-0.3-15.9,0-30.6,0c-7,0-11.9,0-15.4-0.1v-15c4.9,0.1,11.9,0.1,19.7,0.1
		s18.5,0,21.8-0.3c0.6,0,1.6-1.3,1-2.6c-6.5-20.1-18.9-56.2-24.1-70.2c-0.3,0-1.3-0.3-1.6,0.3c-3.7,10.8-10.8,30.6-16.7,47.7V43.5
		c4-11,7.2-19.8,8.9-24.9c2.6-6.8,4.9-14,5.5-18.5c1.3,0,5.2,0.3,10.7,0.3c6.5,0,9.8-0.3,10.7-0.3c1.3,4.9,2.9,10.7,5.2,16.9
		c6.5,18.5,42.6,121.6,53.9,148.5C228.4,187.2,230.6,188.8,254,191.7"/>
	<path id="d_00000031184273558821519270000006341537459562409874_" class="st0" d="M101.2,54.6l10.1-4.9v72.2h-10.1v-5.6
		c-1.9,1.8-4,3.2-6.2,4.3c-3.6,1.8-7.5,2.7-11.7,2.7c-7.5,0-14-2.8-19.3-8.2c-5.3-5.4-8-12.2-8-19.8s2.7-14.2,8-19.6
		c5.3-5.4,11.9-8.2,19.4-8.2c4.4,0,8.4,0.9,11.9,2.8c2.1,1.1,4.1,2.5,5.9,4.3L101.2,54.6L101.2,54.6z M99.3,104.7
		c1.5-2.7,2.3-5.8,2.3-9.2c0-5.2-1.7-9.5-5.1-13c-3.4-3.5-7.5-5.2-12.6-5.2c-3.2,0-6.2,0.8-8.8,2.3c-2.7,1.6-4.9,3.8-6.4,6.6
		c-1.6,2.8-2.4,5.9-2.4,9.1s0.8,6.2,2.4,9.1c1.6,2.9,3.8,5.1,6.5,6.7c2.7,1.6,5.6,2.4,8.7,2.4s6.1-0.8,9-2.4
		C95.7,109.6,97.8,107.4,99.3,104.7L99.3,104.7z"/>
	<polygon id="y_00000046339717177968816000000002326524850237024388_" class="st0" points="52.8,68.7 21.7,140 10.8,140 21.1,116.3 
		0,68.7 10.9,68.7 26.6,103.9 41.9,68.7 	"/>
</g>
</svg>
